PathFileType	4	(X/Y/Z)	/Users/itak/Documents/Research/Walk-IL/dataset/trc/00249_00009.trc
DataRate	CameraRate	NumFrames	NumMarkers	Units	OrigDataRate	OrigDataStartFrame	OrigNumFrames
100.000000	100.000000	4	55	mm	100.000000	308	493
Frame#	Time	RPSI			LPSI			L3			STRN			T10			C7			CLAV			RBAK			LBAK			LSHO			LUPA			LAEL			LAOL			LWTS			LWPS			LFRA			LIFD			LHPS			LHTS			RSHO			RUPA			RAEL			RAOL			RWTS			RWPS			RFRA			RIFD			RHTS			RHPS			RBHD			LFHD			RFHD			LBHD			LHIP			RHIP			RASI			LASI			LKNE			LTHI			LANK			LTIP			LTOE			LMT1			LMT5			LHEE			RKNE			RTHI			RANK			RTIP			RTOE			RMT1			RMT5			RHEE			*53			*54			
		X1	Y1	Z1	X2	Y2	Z2	X3	Y3	Z3	X4	Y4	Z4	X5	Y5	Z5	X6	Y6	Z6	X7	Y7	Z7	X8	Y8	Z8	X9	Y9	Z9	X10	Y10	Z10	X11	Y11	Z11	X12	Y12	Z12	X13	Y13	Z13	X14	Y14	Z14	X15	Y15	Z15	X16	Y16	Z16	X17	Y17	Z17	X18	Y18	Z18	X19	Y19	Z19	X20	Y20	Z20	X21	Y21	Z21	X22	Y22	Z22	X23	Y23	Z23	X24	Y24	Z24	X25	Y25	Z25	X26	Y26	Z26	X27	Y27	Z27	X28	Y28	Z28	X29	Y29	Z29	X30	Y30	Z30	X31	Y31	Z31	X32	Y32	Z32	X33	Y33	Z33	X34	Y34	Z34	X35	Y35	Z35	X36	Y36	Z36	X37	Y37	Z37	X38	Y38	Z38	X39	Y39	Z39	X40	Y40	Z40	X41	Y41	Z41	X42	Y42	Z42	X43	Y43	Z43	X44	Y44	Z44	X45	Y45	Z45	X46	Y46	Z46	X47	Y47	Z47	X48	Y48	Z48	X49	Y49	Z49	X50	Y50	Z50	X51	Y51	Z51	X52	Y52	Z52	X53	Y53	Z53	X54	Y54	Z54	X55	Y55	Z55	

309	3.08	-224.6735687255859	1025.67626953125	330.2684326171875	-114.2209320068359	1033.766357421875	284.6736755371094	-157.5198516845703	1115.588134765625	299.9872741699219	-56.97314453125	1309.71484375	526.28857421875	-167.8959808349609	1240.75	296.6963500976562	-137.9970703125	1502.843383789062	342.298095703125	-70.26008605957031	1425.806518554688	497.023681640625	-237.1909790039062	1365.2333984375	311.6275634765625	-48.11652755737305	1464.614135742188	276.2690734863281	38.86763000488281	1466.962524414062	333.2511901855469	98.11395263671875	1349.892944335938	272.6563110351562	142.4551696777344	1143.346069335938	275.1071472167969	64.82673645019531	1117.188720703125	243.9528198242188	170.964111328125	924.7463989257812	405.5875549316406	224.9815673828125	910.0946655273438	340.9593811035156	177.4700469970703	1041.317016601562	294.6431884765625	222.5274963378906	744.1300659179688	429.5455627441406	254.1714935302734	832.917724609375	370.212646484375	233.2528076171875	841.3417358398438	435.698974609375	-266.985107421875	1474.492309570312	467.7734069824219	-339.9810791015625	1415.2431640625	475.7908020019531	-410.1133117675781	1141.706665039062	456.1642150878906	-345.0199584960938	1136.992797851562	387.7652282714844	-310.1197814941406	921.806884765625	544.9962768554688	-392.4635314941406	906.0703125	527.3515014648438	-411.1167602539062	1070.856079101562	481.8978881835938	-292.6235961914062	739.1173706054688	563.3096923828125	-306.0466613769531	807.6456298828125	597.8895263671875	-374.0729064941406	802.9442749023438	571.12744140625	-161.8580627441406	1660.782836914062	393.0509948730469	-10.39868259429932	1699.583251953125	558.6452026367188	-105.4335556030273	1695.008056640625	589.1624755859375	-21.35932922363281	1671.002319335938	396.5460815429688	54.72310256958008	980.08740234375	329.9769897460938	-286.2598266601562	982.768310546875	459.971435546875	-219.662841796875	1031.227172851562	536.9878540039062	43.58281326293945	1021.169860839844	439.6632690429688	71.71836853027344	516.5010986328125	495.3167419433594	82.19948577880859	651.1627197265625	439.4318237304688	37.99979782104492	29.85214805603027	453.5881042480469	63.03623962402344	283.0546875	470.247314453125	58.93091583251953	42.27841186523438	674.70849609375	-5.291898250579834	39.53944778442383	626.7639770507812	97.33754730224609	32.99325561523438	567.830078125	-32.89942932128906	38.77313613891602	414.4631042480469	-252.2096405029297	489.8080749511719	466.8973693847656	-265.4119567871094	757.1109008789062	507.2435302734375	-377.0597839355469	171.5490875244141	105.5103988647461	-259.3169555664062	382.7369689941406	408.4206848144531	-261.6672973632812	46.11236953735352	215.9568786621094	-243.5794982910156	79.62960815429688	159.4382019042969	-361.7172241210938	87.39763641357422	176.6456451416016	-344.7548828125	225.3711242675781	48.93985366821289	nan	nan	nan	nan	nan	nan	
310	3.09	-220.1244659423828	1026.255615234375	336.0274658203125	-109.2982406616211	1034.96923828125	291.4142150878906	-152.1509552001953	1116.508666992188	306.4903869628906	-53.77976989746094	1310.575317382812	533.699951171875	-162.0851287841797	1241.744262695312	302.851806640625	-132.5552825927734	1503.836669921875	348.8829345703125	-66.60340881347656	1426.70654296875	504.3932800292969	-231.4762268066406	1366.242065429688	317.1813354492188	-41.94954681396484	1465.547607421875	283.764404296875	44.24104690551758	1467.782592773438	341.967529296875	104.9563369750977	1350.957641601562	282.7176513671875	150.8512725830078	1144.701904296875	287.4446411132812	74.26758575439453	1117.5107421875	254.8003234863281	178.3370513916016	929.0257568359375	422.6245422363281	233.9681854248047	913.4365844726562	359.5413513183594	186.33544921875	1043.363891601562	309.5543518066406	231.2476654052734	749.3975219726562	451.9470520019531	263.1147766113281	837.1334228515625	391.0773620605469	240.8545684814453	846.892578125	455.9067993164062	-262.876220703125	1475.5390625	472.9335327148438	-336.0383911132812	1416.5419921875	480.2880859375	-407.2823181152344	1143.491821289062	459.8757019042969	-341.6279602050781	1138.520874023438	391.970947265625	-309.8902587890625	922.0660400390625	548.0591430664062	-392.3067321777344	907.4534301757812	530.038330078125	-409.0630187988281	1072.633544921875	485.2695007324219	-294.45166015625	738.59716796875	564.4159545898438	-307.0127868652344	807.1552124023438	599.5372314453125	-375.0738220214844	803.5198974609375	572.7446899414062	-157.1802368164062	1661.753295898438	399.7880554199219	-6.482698917388916	1700.594360351562	566.0746459960938	-101.6893997192383	1696.108154296875	596.1488037109375	-16.69284439086914	1671.910034179688	403.9384155273438	59.46567535400391	981.3345947265625	337.5247497558594	-282.2103576660156	983.1668701171875	465.3399963378906	-216.7878723144531	1032.102905273438	542.8215942382812	47.51662445068359	1022.032104492188	447.39794921875	73.407958984375	516.0352783203125	498.8959350585938	84.90669250488281	651.3869018554688	444.6635437011719	37.93337249755859	29.84512329101562	453.6766967773438	64.03289031982422	282.7273559570312	472.172119140625	58.75849151611328	42.13956069946289	674.8367309570312	-5.401278018951416	39.36997985839844	626.8345336914062	97.26158905029297	32.99824905395508	567.8955688476562	-32.83757400512695	38.84249877929688	414.4662780761719	-246.6623077392578	490.3226623535156	482.1753234863281	-261.2333984375	758.2335205078125	516.0394287109375	-369.1233825683594	177.4153289794922	117.1710510253906	-253.6044769287109	384.2106628417969	423.6371459960938	-261.6114501953125	47.81045150756836	232.714111328125	-240.6679992675781	81.32430267333984	176.3470001220703	-359.0382690429688	93.52359771728516	189.5250091552734	-333.4883117675781	229.4170532226562	61.19783020019531	nan	nan	nan	nan	nan	nan	
311	3.1	-215.7091827392578	1026.8115234375	341.6753234863281	-104.5233688354492	1036.056884765625	298.0159606933594	-146.9762573242188	1117.401245117188	312.8590087890625	-50.72782897949219	1311.35595703125	541.020751953125	-156.3968200683594	1242.730712890625	308.9288635253906	-127.2042770385742	1504.800903320312	355.43603515625	-63.07648849487305	1427.539916992188	511.70947265625	-225.8732147216797	1367.2412109375	322.6347045898438	-35.87216567993164	1466.430053710938	291.2755432128906	49.50780487060547	1468.552856445312	350.7030334472656	111.7074890136719	1352.006225585938	292.8463134765625	159.2089996337891	1146.10888671875	299.8722229003906	83.76202392578125	1117.883666992188	265.6628723144531	185.3493347167969	933.3248291015625	439.5447998046875	242.6899566650391	916.9449462890625	378.1680603027344	195.0917663574219	1045.513793945312	324.5513000488281	239.4125518798828	754.7914428710938	474.1110534667969	271.6983032226562	841.5307006835938	411.9402770996094	247.9173431396484	852.5029907226562	476.0034790039062	-258.8786926269531	1476.504272460938	477.9849243164062	-332.1878356933594	1417.721557617188	484.6803588867188	-404.2889709472656	1145.070678710938	463.5252075195312	-337.9906616210938	1139.836791992188	396.1856079101562	-309.6273498535156	922.1895751953125	551.2384033203125	-392.0733947753906	908.7085571289062	532.7307739257812	-406.8738098144531	1074.25830078125	488.5916442871094	-296.3487854003906	738.0250854492188	565.5338745117188	-308.01708984375	806.5634765625	601.3101806640625	-376.0794677734375	803.9927368164062	574.3766479492188	-152.6104125976562	1662.658813476562	406.4997863769531	-2.741768598556519	1701.558715820312	573.5138549804688	-98.11520385742188	1697.154174804688	603.1159057617188	-12.14386749267578	1672.773071289062	411.34033203125	64.05355072021484	982.4312133789062	344.9652404785156	-278.3290710449219	983.6522216796875	470.6130676269531	-213.9434509277344	1032.950073242188	548.4758911132812	51.28009796142578	1022.843566894531	454.9624938964844	75.03047180175781	515.5401000976562	502.3881225585938	87.52894592285156	651.570556640625	449.8271789550781	37.84326553344727	29.84114646911621	453.7813110351562	64.97570037841797	282.4049377441406	474.018798828125	58.62946319580078	42.01276779174805	674.949951171875	-5.486282348632812	39.21307754516602	626.9057006835938	97.20269775390625	32.99896621704102	567.9528198242188	-32.77633285522461	38.92285537719727	414.48046875	-241.2548217773438	491.1929016113281	497.2851867675781	-257.3245849609375	759.5048828125	524.767578125	-360.70458984375	182.0045928955078	129.9450531005859	-247.9222717285156	385.9153747558594	438.9168701171875	-260.75634765625	49.56458282470703	250.74853515625	-237.1629028320312	82.44535064697266	194.4581146240234	-355.4901733398438	99.00749206542969	203.9155120849609	-321.9540100097656	231.9003448486328	74.27991485595703	nan	nan	nan	nan	nan	nan	
312	3.11	-211.4039916992188	1027.374389648438	347.2326049804688	-99.87693786621094	1037.040771484375	304.4939270019531	-141.9874420166016	1118.284912109375	319.0767822265625	-47.80027008056641	1312.078857421875	548.2449340820312	-150.8426971435547	1243.722412109375	314.9365539550781	-121.9532241821289	1505.745849609375	361.9603576660156	-59.67137908935547	1428.327514648438	518.9633178710938	-220.3856811523438	1368.243530273438	328.0059814453125	-29.90511703491211	1467.2724609375	298.7928771972656	54.65101623535156	1469.300170898438	359.4278869628906	118.3290176391602	1353.060424804688	303.0125122070312	167.5023193359375	1147.598022460938	312.3976440429688	93.28072357177734	1118.336059570312	276.5745544433594	192.0186004638672	937.6428833007812	456.33251953125	251.1162872314453	920.6272583007812	396.8047485351562	203.7109527587891	1047.78466796875	339.6265258789062	247.0006103515625	760.2875366210938	495.9556884765625	279.8968200683594	846.1058959960938	432.7468872070312	254.4229125976562	858.1466674804688	495.9364013671875	-254.992431640625	1477.409057617188	482.9515075683594	-328.4332580566406	1418.803833007812	488.9835205078125	-401.1225280761719	1146.463500976562	467.1018371582031	-334.09521484375	1140.970825195312	400.416259765625	-309.3346557617188	922.2047729492188	554.5403442382812	-391.7551574707031	909.849853515625	535.39990234375	-404.5256652832031	1075.744262695312	491.8594970703125	-298.2904052734375	737.4417114257812	566.7501831054688	-309.0856018066406	805.9224853515625	603.2474975585938	-377.1055603027344	804.3970947265625	576.0209350585938	-148.1395568847656	1663.517944335938	413.1862487792969	0.8308448791503906	1702.472412109375	580.9649047851562	-94.70494079589844	1698.142333984375	610.0632934570312	-7.705102443695068	1673.599487304688	418.7551574707031	68.49275207519531	983.3833618164062	352.30712890625	-274.6090698242188	984.2696533203125	475.816162109375	-211.0658874511719	1033.808349609375	553.9749755859375	54.90220260620117	1023.621215820312	462.3661804199219	76.60037231445312	515.02001953125	505.7707824707031	90.0677490234375	651.713623046875	454.8982238769531	37.73661041259766	29.84505271911621	453.8927612304688	65.86140441894531	282.0949401855469	475.7537536621094	58.53766250610352	41.90045928955078	675.04833984375	-5.549248218536377	39.07484817504883	626.9757080078125	97.16220092773438	32.99676895141602	567.999267578125	-32.71406936645508	39.01495742797852	414.49658203125	-235.9916229248047	492.4002990722656	512.1707153320312	-253.6935424804688	760.9389038085938	533.3958740234375	-351.9307556152344	185.1554718017578	143.8216400146484	-242.2664947509766	387.7879943847656	454.25	-258.8533935546875	51.21270370483398	269.8371887207031	-232.9149169921875	82.98721313476562	213.5543212890625	-350.9703063964844	103.5349731445312	219.6461639404297	-310.40380859375	232.8348999023438	88.23683929443359	nan	nan	nan	nan	nan	nan	
